<svg xmlns="http://www.w3.org/2000/svg" style="display:none">
  <defs>
    <symbol id="icon-tiktok" viewBox="0 0 24 24" fill="currentColor">
      <path d="M12.525.02c1.31-.02 2.61-.01 3.91-.02.08 1.53.63 3.09 1.75 4.17 1.12 1.11 2.7 1.62 4.24 1.79v4.03c-1.44-.05-2.89-.35-4.2-.97-.57-.26-1.1-.59-1.62-.93-.01 2.92.01 5.84-.02 8.75-.08 1.4-.54 2.79-1.35 3.94-1.31 1.92-3.58 3.17-5.91 3.21-1.43.08-2.86-.31-4.08-1.03-2.02-1.19-3.44-3.37-3.65-5.71-.02-.5-.03-1-.01-1.49.18-1.9 1.12-3.72 2.58-4.96 1.66-1.44 3.98-2.13 6.15-1.72.02 1.48-.04 2.96-.04 4.44-.99-.32-2.15-.23-3.02.37-.63.41-1.11 1.04-1.36 1.75-.21.51-.15 1.07-.14 1.61.24 1.64 1.82 3.02 3.5 2.87 1.12-.01 2.19-.66 2.77-1.61.19-.33.4-.67.41-1.06.1-1.79.06-3.57.07-5.36.01-4.03-.01-8.05.02-12.07z"/>
    </symbol>
    <symbol id="icon-discord" viewBox="0 0 24 24" fill="currentColor">
      <path d="M20.317 4.3698a19.7913 19.7913 0 00-4.8851-1.5152.0741.0741 0 00-.0785.0371c-.211.3753-.4447.8648-.6083 1.2495-1.8447-.2762-3.68-.2762-5.4868 0-.1636-.3933-.4058-.8742-.6177-1.2495a.077.077 0 00-.0785-.037 19.7363 19.7363 0 00-4.8852 1.515.0699.0699 0 00-.0321.0277C.5334 9.0458-.319 13.5799.0992 18.0578a.0824.0824 0 00.0312.0561c2.0528 1.5076 4.0413 2.4228 5.9929 3.0294a.0777.0777 0 00.0842-.0276c.4616-.6304.8731-1.2952 1.226-1.9942a.076.076 0 00-.0416-.1057c-.6528-.2476-1.2743-.5495-1.8722-.8923a.077.077 0 01-.0076-.1277c.1258-.0943.2517-.1923.3718-.2914a.0743.0743 0 01.0776-.0105c3.9278 1.7933 8.18 1.7933 12.0614 0a.0739.0739 0 01.0785.0095c.1202.099.246.1981.3728.2924a.077.077 0 01-.0066.1276 12.2986 12.2986 0 01-1.873.8914.0766.0766 0 00-.0407.1067c.3604.698.7719 1.3628 1.225 1.9932a.076.076 0 00.0842.0286c1.961-.6067 3.9495-1.5219 6.0023-3.0294a.077.077 0 00.0313-.0552c.5004-5.1776-.8382-9.6739-3.5485-13.6604a.061.061 0 00-.0312-.0286zM8.02 15.3312c-1.1825 0-2.1569-1.0857-2.1569-2.419 0-1.3332.9555-2.4189 2.157-2.4189 1.2108 0 2.1757 1.0952 2.1568 2.419 0 1.3332-.9555 2.4189-2.1569 2.4189zm7.9748 0c-1.1825 0-2.1569-1.0857-2.1569-2.419 0-1.3332.9554-2.4189 2.1569-2.4189 1.2108 0 2.1757 1.0952 2.1568 2.419 0 1.3332-.946 2.4189-2.1568 2.4189z"/>
    </symbol>
    <symbol id="icon-twitch" viewBox="0 0 24 24" fill="currentColor">
      <path d="M11.571 4.714h1.715v5.143H11.57zm4.715 0H18v5.143h-1.714zM6 0L1.714 4.286v15.428h5.143V24l4.286-4.286h3.428L22.286 12V0zm14.571 11.143l-3.428 3.428h-3.428l-3 3v-3H6.857V1.714h13.714z"/>
    </symbol>
    <symbol id="icon-youtube" viewBox="0 0 24 24" fill="currentColor">
      <path d="M23.498 6.186a3.016 3.016 0 00-2.122-2.136C19.505 3.545 12 3.545 12 3.545s-7.505 0-9.377.505A3.017 3.017 0 00.502 6.186C0 8.07 0 12 0 12s0 3.93.502 5.814a3.016 3.016 0 002.122 2.136c1.871.505 9.376.505 9.376.505s7.505 0 9.377-.505a3.015 3.015 0 002.122-2.136C24 15.93 24 12 24 12s0-3.93-.502-5.814zM9.545 15.568V8.432L15.818 12l-6.273 3.568z"/>
    </symbol>
    <symbol id="icon-bluesky" viewBox="0 0 24 24" fill="currentColor">
      <path d="M12 10.8c-1.087-2.114-4.046-6.053-6.798-7.995C2.566 1.023 1.2 1.666 1.2 3.5c0 .35.1 1.8.3 2.25.6 2.1 3.9 5.7 6.6 6.6.5.15.5.3 0 .45-2.7.9-6 4.5-6.6 6.6-.2.45-.3 1.9-.3 2.25 0 1.833 1.366 2.477 4.002.695 2.752-1.942 5.711-5.881 6.798-7.995 1.087 2.114 4.046 6.053 6.798 7.995 2.636 1.782 4.002 1.138 4.002-.695 0-.35-.1-1.8-.3-2.25-.6-2.1-3.9-5.7-6.6-6.6-.5-.15-.5-.3 0-.45 2.7-.9 6-4.5 6.6-6.6.2-.45.3-1.9.3-2.25 0-1.833-1.366-2.477-4.002-.695-2.752 1.942-5.711 5.881-6.798 7.995z"/>
    </symbol>
    <symbol id="icon-x" viewBox="0 0 24 24" fill="currentColor">
      <path d="M18.244 2.25h3.308l-7.227 8.26 8.502 11.24H16.17l-5.214-6.817L4.99 21.75H1.68l7.73-8.835L1.254 2.25H8.08l4.713 6.231zm-1.161 17.52h1.833L7.084 4.126H5.117z"/>
    </symbol>
  </defs>
</svg>
